<svg version="1.1" width="316" height="350" viewBox="-1 -1 316 350" xmlns="http://www.w3.org/2000/svg" xmlns:xlink="http://www.w3.org/1999/xlink">
  <!-- Exported by Scratch - http://scratch.mit.edu/ -->
  <path id="ID0.6185353458859026" fill="#000000" stroke="none" stroke-linecap="round" d="M 248.750 53 C 270.752 53 290.690 61.936 305.127 76.373 C 319.564 90.810 327.353 112.460 328.500 132.750 C 329.719 154.291 324.235 177.700 312.500 196 C 297.923 218.229 273.484 227.324 258.500 247 C 254.754 251.919 266.676 259.511 262.500 263 C 256.028 268.406 243.058 270.414 236.500 265.500 C 231.560 261.415 243.401 250.462 239.500 245 C 225.121 224.884 199.889 215.052 186 193.500 C 174.705 175.799 167.978 153.643 169 132.750 C 169.992 112.451 177.936 90.810 192.373 76.373 C 206.810 61.936 226.748 53 248.750 53 Z " transform="matrix(1, 0, 0, 1, -168, -53)"/>
  <path id="ID0.28367277700453997" fill="none" stroke="#000000" stroke-width="2" stroke-linecap="round" d="M 247.500 213 C 247.500 213 246.864 214.681 246.500 215.500 C 246.198 216.180 245.735 216.794 245.500 217.500 C 245.066 218.803 244.910 220.190 244.500 221.500 C 244.076 222.858 243.409 224.137 243 225.500 C 242.408 227.473 241.839 229.469 241.500 231.500 C 241.170 233.478 240.648 235.526 241 237.500 C 241.500 240.301 242.943 242.858 244 245.500 C 244.277 246.191 244.605 246.869 245 247.500 C 245.441 248.206 246.092 248.774 246.500 249.500 C 247.595 251.447 248.501 253.502 249.500 255.500 C 250.166 256.832 250.889 258.142 251.500 259.500 C 252.388 261.474 253.240 263.473 254 265.500 C 254.241 266.143 254.333 266.834 254.500 267.500 C 254.667 268.166 254.915 268.819 255 269.500 C 255.249 271.489 255.203 273.517 255.500 275.500 C 255.704 276.858 256.402 278.130 256.500 279.500 C 256.737 282.822 256.604 286.172 256.500 289.500 C 256.437 291.504 256.297 293.517 256 295.500 C 255.796 296.858 255.410 298.190 255 299.500 C 254.576 300.858 253.924 302.142 253.500 303.500 C 253.090 304.810 252.958 305.668 252.500 307.500 C 250.668 314.826 248.698 322.142 247 329.500 C 246.575 331.340 246.747 332.181 246.500 333.500 C 246.247 334.849 245.637 336.134 245.500 337.500 C 245.301 339.488 245.375 341.506 245.500 343.500 C 245.543 344.185 245.887 344.823 246 345.500 C 246.221 346.824 246.279 348.176 246.500 349.500 C 246.613 350.177 246.877 350.825 247 351.500 C 247.211 352.658 247.500 355 247.500 355 " transform="matrix(1, 0, 0, 1, -164, -8)"/>
  <path id="ID0.19422472594305873" fill="none" stroke="#EB967C" stroke-width="2" stroke-linecap="round" d="M 478 176.500 L 478.300 176.800 " transform="matrix(1, 0, 0, 1, -164, -8)"/>
</svg>